<svg width="115" height="19" viewBox="0 0 115 19" fill="none" xmlns="http://www.w3.org/2000/svg">
<path d="M14.816 18H11.504V6.48L3.992 18H0.68V0.719999H3.992V12.24L11.504 0.719999H14.816V18ZM16.2204 18V5.04H19.4844V9.984H24.8124V5.04H28.0764V18H24.8124V13.032H19.4844V18H16.2204ZM29.4879 18V5.04H32.7519V9.984H38.0799V5.04H41.3439V18H38.0799V13.032H32.7519V18H29.4879ZM48.6114 18.36C47.3074 18.36 46.1634 18.068 45.1794 17.484C44.1954 16.9 43.4274 16.096 42.8754 15.072C42.3314 14.04 42.0594 12.856 42.0594 11.52C42.0594 10.168 42.3394 8.98 42.8994 7.956C43.4594 6.924 44.2314 6.12 45.2154 5.544C46.1994 4.968 47.3314 4.68 48.6114 4.68C49.9154 4.68 51.0594 4.972 52.0434 5.556C53.0354 6.14 53.8074 6.948 54.3594 7.98C54.9114 9.004 55.1874 10.184 55.1874 11.52C55.1874 12.864 54.9074 14.052 54.3474 15.084C53.7954 16.108 53.0234 16.912 52.0314 17.496C51.0474 18.072 49.9074 18.36 48.6114 18.36ZM48.6114 15.312C49.6594 15.312 50.4394 14.96 50.9514 14.256C51.4714 13.544 51.7314 12.632 51.7314 11.52C51.7314 10.368 51.4674 9.448 50.9394 8.76C50.4194 8.072 49.6434 7.728 48.6114 7.728C47.8994 7.728 47.3154 7.888 46.8594 8.208C46.4034 8.528 46.0634 8.972 45.8394 9.54C45.6234 10.108 45.5154 10.768 45.5154 11.52C45.5154 12.68 45.7754 13.604 46.2954 14.292C46.8234 14.972 47.5954 15.312 48.6114 15.312ZM55.8822 18V5.04H61.9543C62.4343 5.04 62.8543 5.068 63.2142 5.124C63.5742 5.172 63.8743 5.232 64.1143 5.304C64.7063 5.48 65.2463 5.824 65.7343 6.336C66.2223 6.848 66.4663 7.592 66.4663 8.568C66.4663 9.144 66.3743 9.612 66.1903 9.972C66.0063 10.324 65.7623 10.616 65.4583 10.848C65.3143 10.952 65.1703 11.04 65.0263 11.112C64.8823 11.184 64.7383 11.24 64.5942 11.28C64.9302 11.328 65.2343 11.416 65.5063 11.544C65.9383 11.736 66.3142 12.04 66.6343 12.456C66.9542 12.864 67.1142 13.472 67.1142 14.28C67.1142 15.144 66.9022 15.88 66.4783 16.488C66.0623 17.096 65.4343 17.52 64.5942 17.76C64.3063 17.84 63.9663 17.9 63.5743 17.94C63.1902 17.98 62.7862 18 62.3623 18H55.8822ZM59.1943 15.528H62.1223C62.2903 15.528 62.4622 15.512 62.6383 15.48C62.8223 15.44 62.9863 15.392 63.1303 15.336C63.3623 15.24 63.5263 15.076 63.6223 14.844C63.7263 14.612 63.7783 14.376 63.7783 14.136C63.7783 13.8 63.7023 13.536 63.5502 13.344C63.4063 13.152 63.2423 13.016 63.0583 12.936C62.9062 12.864 62.7382 12.824 62.5542 12.816C62.3783 12.8 62.2343 12.792 62.1223 12.792H59.1943V15.528ZM59.1943 10.272H61.1863C61.4423 10.272 61.6823 10.26 61.9063 10.236C62.1383 10.204 62.3303 10.152 62.4822 10.08C62.6903 9.984 62.8463 9.832 62.9503 9.624C63.0543 9.408 63.1062 9.168 63.1062 8.904C63.1062 8.624 63.0462 8.372 62.9262 8.148C62.8142 7.916 62.6263 7.76 62.3623 7.68C62.1862 7.616 61.9622 7.58 61.6903 7.572C61.4263 7.564 61.2583 7.56 61.1863 7.56H59.1943V10.272ZM71.2034 18.36C70.2754 18.36 69.4874 18.184 68.8394 17.832C68.1994 17.472 67.7114 16.996 67.3754 16.404C67.0474 15.804 66.8834 15.144 66.8834 14.424C66.8834 13.824 66.9754 13.276 67.1594 12.78C67.3434 12.284 67.6394 11.848 68.0474 11.472C68.4634 11.088 69.0194 10.768 69.7154 10.512C70.1954 10.336 70.7674 10.18 71.4314 10.044C72.0954 9.908 72.8474 9.78 73.6874 9.66C74.5274 9.532 75.4514 9.392 76.4594 9.24L75.2834 9.888C75.2834 9.12 75.0994 8.556 74.7314 8.196C74.3634 7.836 73.7474 7.656 72.8834 7.656C72.4034 7.656 71.9034 7.772 71.3834 8.004C70.8634 8.236 70.4994 8.648 70.2914 9.24L67.3394 8.304C67.6674 7.232 68.2834 6.36 69.1874 5.688C70.0914 5.016 71.3234 4.68 72.8834 4.68C74.0274 4.68 75.0434 4.856 75.9314 5.208C76.8194 5.56 77.4914 6.168 77.9474 7.032C78.2034 7.512 78.3554 7.992 78.4034 8.472C78.4514 8.952 78.4754 9.488 78.4754 10.08V18H75.6194V15.336L76.0274 15.888C75.3954 16.76 74.7114 17.392 73.9754 17.784C73.2474 18.168 72.3234 18.36 71.2034 18.36ZM71.8994 15.792C72.4994 15.792 73.0034 15.688 73.4114 15.48C73.8274 15.264 74.1554 15.02 74.3954 14.748C74.6434 14.476 74.8114 14.248 74.8994 14.064C75.0674 13.712 75.1634 13.304 75.1874 12.84C75.2194 12.368 75.2354 11.976 75.2354 11.664L76.1954 11.904C75.2274 12.064 74.4434 12.2 73.8434 12.312C73.2434 12.416 72.7594 12.512 72.3914 12.6C72.0234 12.688 71.6994 12.784 71.4194 12.888C71.0994 13.016 70.8394 13.156 70.6394 13.308C70.4474 13.452 70.3034 13.612 70.2074 13.788C70.1194 13.964 70.0754 14.16 70.0754 14.376C70.0754 14.672 70.1474 14.928 70.2914 15.144C70.4434 15.352 70.6554 15.512 70.9274 15.624C71.1994 15.736 71.5234 15.792 71.8994 15.792Z" fill="white"/>
<path d="M83.6836 18V3.768H78.2356V0.719999H92.3956V3.768H86.9476V18H83.6836ZM96.7406 18.36C95.4126 18.36 94.2406 18.076 93.2246 17.508C92.2166 16.932 91.4246 16.144 90.8486 15.144C90.2806 14.136 89.9966 12.984 89.9966 11.688C89.9966 10.272 90.2766 9.04 90.8366 7.992C91.3966 6.944 92.1686 6.132 93.1526 5.556C94.1366 4.972 95.2686 4.68 96.5486 4.68C97.9086 4.68 99.0646 5 100.017 5.64C100.969 6.28 101.673 7.18 102.129 8.34C102.585 9.5 102.745 10.864 102.609 12.432H99.3806V11.232C99.3806 9.912 99.1686 8.964 98.7446 8.388C98.3286 7.804 97.6446 7.512 96.6926 7.512C95.5806 7.512 94.7606 7.852 94.2326 8.532C93.7126 9.204 93.4526 10.2 93.4526 11.52C93.4526 12.728 93.7126 13.664 94.2326 14.328C94.7606 14.984 95.5326 15.312 96.5486 15.312C97.1886 15.312 97.7366 15.172 98.1926 14.892C98.6486 14.612 98.9966 14.208 99.2366 13.68L102.501 14.616C102.013 15.8 101.241 16.72 100.185 17.376C99.1366 18.032 97.9886 18.36 96.7406 18.36ZM92.4446 12.432V10.008H101.037V12.432H92.4446ZM101.489 18L106.121 11.448L101.585 5.04H105.425L108.017 8.88L110.561 5.04H114.401L109.865 11.448L114.521 18H110.681L108.017 14.016L105.329 18H101.489Z" fill="#EA4545"/>
</svg>
