<svg width="12" height="12" viewBox="0 0 12 12" fill="none" xmlns="http://www.w3.org/2000/svg">
<path fill-rule="evenodd" clip-rule="evenodd" d="M5.34923 0.740743C5.72372 0.419752 6.27632 0.419752 6.65081 0.740743L11.6508 5.02646C12.0701 5.38588 12.1187 6.01718 11.7593 6.43651C11.3999 6.85583 10.7686 6.90439 10.3492 6.54497L6.00002 2.81708L1.65081 6.54497C1.23148 6.90439 0.600184 6.85583 0.240762 6.43651C-0.118661 6.01718 -0.0700991 5.38588 0.349227 5.02646L5.34923 0.740743ZM3.00002 6.5C3.5523 6.5 4.00002 6.94772 4.00002 7.5V9.5H8.00002V7.5C8.00002 6.94772 8.44773 6.5 9.00002 6.5C9.5523 6.5 10 6.94772 10 7.5V10.5C10 11.0523 9.5523 11.5 9.00002 11.5H3.00002C2.44773 11.5 2.00002 11.0523 2.00002 10.5V7.5C2.00002 6.94772 2.44773 6.5 3.00002 6.5Z" fill="#7F7F7F"/>
</svg>
