<svg width="16" height="16" viewBox="0 0 16 16" fill="none" xmlns="http://www.w3.org/2000/svg">
<g id="Icons / 16px / Phone">
<path id="Vector" d="M14.9533 11.3833C13.7162 11.2702 12.5062 10.9543 11.3717 10.4483C11.1042 10.3261 10.7998 10.3119 10.5221 10.4088C10.2445 10.5057 10.015 10.7062 9.88167 10.9683L9.10501 12.51C6.74432 11.1999 4.79841 9.25401 3.48835 6.89333L5.03168 6.11833C5.29381 5.98497 5.49437 5.7556 5.59155 5.47802C5.68873 5.20044 5.67505 4.89607 5.55334 4.62833C5.04536 3.4944 4.72885 2.28411 4.61668 1.04667C4.59371 0.762354 4.46484 0.497025 4.25558 0.303196C4.04632 0.109366 3.77191 0.00116198 3.48668 0H0.571683C0.420068 0 0.274663 0.060229 0.167454 0.167437C0.0602463 0.274645 1.72379e-05 0.420051 1.72379e-05 0.571666C-0.0034362 2.87994 0.512049 5.15947 1.50835 7.24166C3.03708 10.4086 5.59308 12.9646 8.76001 14.4933C10.86 15.4933 13.1033 16 15.4283 16C15.745 16 16 15.7433 16 15.4283V12.5167C16.0001 12.2307 15.8924 11.9553 15.6984 11.7452C15.5044 11.5352 15.2384 11.406 14.9533 11.3833Z" fill="#292929"/>
</g>
</svg>
