<svg width="16" height="16" viewBox="0 0 16 16" fill="none" xmlns="http://www.w3.org/2000/svg">
<g id="Group 5">
<path id="Rectangle 4 (Stroke)" fill-rule="evenodd" clip-rule="evenodd" d="M3.37963 0.292893C3.77015 -0.0976311 4.40332 -0.0976311 4.79384 0.292893L7.88058 3.37963C8.2711 3.77015 8.2711 4.40332 7.88058 4.79384L4.79384 7.88058C4.40332 8.2711 3.77015 8.2711 3.37963 7.88058L0.292893 4.79384C-0.0976311 4.40332 -0.0976311 3.77015 0.292893 3.37963L3.37963 0.292893ZM4.08674 2.41421L2.41421 4.08674L4.08674 5.75926L5.75926 4.08674L4.08674 2.41421Z" fill="#EA4545"/>
<path id="Rectangle 5 (Stroke)" fill-rule="evenodd" clip-rule="evenodd" d="M9.63464 1.90411C9.63464 1.35183 10.0824 0.904114 10.6346 0.904114H14.9999C15.5522 0.904114 15.9999 1.35183 15.9999 1.90411V6.26942C15.9999 6.8217 15.5522 7.26942 14.9999 7.26942H10.6346C10.0824 7.26942 9.63464 6.8217 9.63464 6.26942V1.90411ZM11.6346 2.90411V5.26942H13.9999V2.90411H11.6346Z" fill="#EA4545"/>
<path id="Rectangle 6 (Stroke)" fill-rule="evenodd" clip-rule="evenodd" d="M0.904053 10.6347C0.904053 10.0824 1.35177 9.6347 1.90405 9.6347H6.26936C6.82164 9.6347 7.26936 10.0824 7.26936 10.6347V15C7.26936 15.5523 6.82164 16 6.26936 16H1.90405C1.35177 16 0.904053 15.5523 0.904053 15V10.6347ZM2.90405 11.6347V14H5.26936V11.6347H2.90405Z" fill="#EA4545"/>
<path id="Rectangle 7 (Stroke)" fill-rule="evenodd" clip-rule="evenodd" d="M9.63464 10.6347C9.63464 10.0824 10.0824 9.6347 10.6346 9.6347H14.9999C15.5522 9.6347 15.9999 10.0824 15.9999 10.6347V15C15.9999 15.5523 15.5522 16 14.9999 16H10.6346C10.0824 16 9.63464 15.5523 9.63464 15V10.6347ZM11.6346 11.6347V14H13.9999V11.6347H11.6346Z" fill="#EA4545"/>
</g>
</svg>
