<svg width="24" height="24" viewBox="0 0 24 24" fill="none" xmlns="http://www.w3.org/2000/svg">
<g clip-path="url(#clip0_607_2437)">
<path d="M22.9993 10.9999C22.7341 10.9999 22.4797 10.8946 22.2922 10.707C22.1046 10.5195 21.9993 10.2651 21.9993 9.99993C21.9972 7.87885 21.1536 5.84525 19.6538 4.34541C18.154 2.84558 16.1204 2.00205 13.9993 1.99993C13.7341 1.99993 13.4797 1.89457 13.2922 1.70704C13.1047 1.5195 12.9993 1.26515 12.9993 0.999929C12.9993 0.734712 13.1047 0.480358 13.2922 0.292822C13.4797 0.105285 13.7341 -7.13893e-05 13.9993 -7.13893e-05C16.6506 0.00284021 19.1924 1.05734 21.0671 2.93208C22.9419 4.80681 23.9964 7.34866 23.9993 9.99993C23.9993 10.2651 23.8939 10.5195 23.7064 10.707C23.5189 10.8946 23.2645 10.9999 22.9993 10.9999ZM19.9993 9.99993C19.9993 8.40863 19.3672 6.88251 18.2419 5.75729C17.1167 4.63207 15.5906 3.99993 13.9993 3.99993C13.7341 3.99993 13.4797 4.10529 13.2922 4.29282C13.1047 4.48036 12.9993 4.73471 12.9993 4.99993C12.9993 5.26514 13.1047 5.5195 13.2922 5.70704C13.4797 5.89457 13.7341 5.99993 13.9993 5.99993C15.0602 5.99993 16.0776 6.42136 16.8277 7.1715C17.5779 7.92165 17.9993 8.93906 17.9993 9.99993C17.9993 10.2651 18.1047 10.5195 18.2922 10.707C18.4797 10.8946 18.7341 10.9999 18.9993 10.9999C19.2645 10.9999 19.5189 10.8946 19.7064 10.707C19.8939 10.5195 19.9993 10.2651 19.9993 9.99993ZM22.1823 22.1639L23.0923 21.1149C23.6715 20.5339 23.9967 19.7469 23.9967 18.9264C23.9967 18.106 23.6715 17.319 23.0923 16.7379C23.0613 16.7069 20.6553 14.8559 20.6553 14.8559C20.0778 14.3063 19.3108 14.0002 18.5136 14.0013C17.7164 14.0024 16.9502 14.3106 16.3743 14.8619L14.4683 16.4679C12.9125 15.824 11.4992 14.8791 10.3096 13.6874C9.11999 12.4958 8.17752 11.0809 7.53631 9.52393L9.13631 7.62393C9.68802 7.0481 9.9966 6.28181 9.99791 5.48433C9.99921 4.68686 9.69314 3.91956 9.14331 3.34193C9.14331 3.34193 7.29031 0.938929 7.25931 0.907929C6.68876 0.333677 5.91519 0.00695063 5.10574 -0.00165661C4.29629 -0.0102638 3.51594 0.299939 2.93332 0.861929L1.78332 1.86193C-5.01067 9.74393 9.61931 24.2609 17.7613 23.9999C18.5835 24.0047 19.3983 23.8447 20.1576 23.5293C20.9169 23.214 21.6054 22.7497 22.1823 22.1639Z" fill="white"/>
</g>
<defs>
<clipPath id="clip0_607_2437">
<rect width="24" height="24" fill="white"/>
</clipPath>
</defs>
</svg>
