<svg width="24" height="24" viewBox="0 0 24 24" fill="none" xmlns="http://www.w3.org/2000/svg">
<g clip-path="url(#clip0_607_2446)">
<path d="M14.1807 0.206976C14.0365 0.180439 13.8883 0.185932 13.7464 0.223067C13.6046 0.260202 13.4727 0.32807 13.36 0.421864C13.2473 0.515658 13.1566 0.633082 13.0943 0.76582C13.0321 0.898558 12.9998 1.04336 12.9997 1.18998V4.06898C11.7889 3.90834 10.5574 4.0287 9.40066 4.42073C8.24389 4.81275 7.19295 5.46591 6.32929 6.32956C5.46564 7.19321 4.81249 8.24416 4.42046 9.40092C4.02844 10.5577 3.90808 11.7892 4.06871 13H1.18971C1.0431 13 0.898294 13.0324 0.765556 13.0946C0.632818 13.1569 0.515393 13.2476 0.421599 13.3602C0.327806 13.4729 0.259938 13.6049 0.222803 13.7467C0.185668 13.8885 0.180174 14.0368 0.206711 14.181C0.602721 16.3325 1.57934 18.3348 3.03098 19.9714C4.48262 21.6081 6.35404 22.8167 8.44289 23.4668C10.5317 24.1168 12.7585 24.1834 14.8825 23.6595C17.0065 23.1355 18.9468 22.0409 20.4937 20.494C22.0406 18.9471 23.1353 17.0068 23.6592 14.8828C24.1832 12.7588 24.1165 10.532 23.4665 8.44315C22.8165 6.3543 21.6078 4.48288 19.9712 3.03125C18.3345 1.57961 16.3322 0.602986 14.1807 0.206976ZM11.9997 14C11.6501 13.999 11.3068 13.9061 11.0044 13.7306C10.702 13.5551 10.451 13.3031 10.2767 13H7.99971C7.73449 13 7.48014 12.8946 7.2926 12.7071C7.10507 12.5195 6.99971 12.2652 6.99971 12C6.99971 11.7348 7.10507 11.4804 7.2926 11.2929C7.48014 11.1053 7.73449 11 7.99971 11H10.2767C10.451 10.7004 10.7001 10.4513 10.9997 10.277V6.99998C10.9997 6.73476 11.1051 6.48041 11.2926 6.29287C11.4801 6.10533 11.7345 5.99998 11.9997 5.99998C12.2649 5.99998 12.5193 6.10533 12.7068 6.29287C12.8944 6.48041 12.9997 6.73476 12.9997 6.99998V10.277C13.3811 10.4961 13.6794 10.8352 13.8481 11.2415C14.0167 11.6478 14.0463 12.0984 13.9322 12.5232C13.8181 12.9481 13.5667 13.3233 13.2172 13.5904C12.8676 13.8574 12.4396 14.0015 11.9997 14ZM9.97171 0.0999756C10.1695 0.0999756 10.3628 0.158625 10.5273 0.268506C10.6917 0.378387 10.8199 0.534566 10.8956 0.717292C10.9713 0.900018 10.9911 1.10108 10.9525 1.29507C10.9139 1.48905 10.8187 1.66723 10.6788 1.80708C10.539 1.94693 10.3608 2.04218 10.1668 2.08076C9.97282 2.11935 9.77175 2.09954 9.58903 2.02386C9.4063 1.94817 9.25012 1.81999 9.14024 1.65555C9.03036 1.4911 8.97171 1.29776 8.97171 1.09998C8.97171 0.834759 9.07707 0.580405 9.2646 0.392869C9.45214 0.205332 9.70649 0.0999756 9.97171 0.0999756ZM5.87171 1.85598C6.06949 1.85598 6.26283 1.91462 6.42728 2.02451C6.59173 2.13439 6.7199 2.29057 6.79559 2.47329C6.87128 2.65602 6.89108 2.85708 6.8525 3.05107C6.81391 3.24505 6.71867 3.42323 6.57882 3.56308C6.43897 3.70293 6.26078 3.79818 6.0668 3.83676C5.87282 3.87535 5.67175 3.85554 5.48903 3.77986C5.3063 3.70417 5.15012 3.576 5.04024 3.41155C4.93036 3.2471 4.87171 3.05376 4.87171 2.85598C4.87118 2.59093 4.97589 2.33652 5.16284 2.14864C5.34978 1.96075 5.60367 1.85477 5.86871 1.85398L5.87171 1.85598ZM2.77871 4.84098C2.97649 4.84098 3.16983 4.89962 3.33428 5.00951C3.49873 5.11939 3.6269 5.27557 3.70259 5.45829C3.77828 5.64102 3.79808 5.84208 3.7595 6.03607C3.72091 6.23005 3.62567 6.40823 3.48582 6.54808C3.34597 6.68793 3.16778 6.78318 2.9738 6.82176C2.77982 6.86035 2.57875 6.84054 2.39603 6.76486C2.2133 6.68917 2.05712 6.561 1.94724 6.39655C1.83736 6.2321 1.77871 6.03876 1.77871 5.84098C1.77871 5.57576 1.88407 5.3214 2.0716 5.13387C2.25914 4.94633 2.51349 4.84098 2.77871 4.84098ZM1.17871 9.00798C1.37649 9.00798 1.56983 9.06662 1.73428 9.17651C1.89873 9.28639 2.0269 9.44257 2.10259 9.62529C2.17828 9.80802 2.19808 10.0091 2.1595 10.2031C2.12091 10.397 2.02567 10.5752 1.88582 10.7151C1.74597 10.8549 1.56778 10.9502 1.3738 10.9888C1.17982 11.0273 0.978754 11.0075 0.796027 10.9319C0.613301 10.8562 0.457123 10.728 0.347241 10.5635C0.23736 10.3991 0.178711 10.2058 0.178711 10.008C0.17871 9.7431 0.283793 9.48905 0.470897 9.30157C0.658001 9.1141 0.911841 9.0085 1.17671 9.00798H1.17871Z" fill="white"/>
</g>
<defs>
<clipPath id="clip0_607_2446">
<rect width="24" height="24" fill="white"/>
</clipPath>
</defs>
</svg>
