<svg width="96" height="34" viewBox="0 0 96 34" fill="none" xmlns="http://www.w3.org/2000/svg">
<g clip-path="url(#clip0_575_59)">
<path fill-rule="evenodd" clip-rule="evenodd" d="M79.2028 0.000126598C75.4014 -0.00598719 71.7157 1.30748 68.775 3.7163C65.8143 1.30724 62.1126 -0.00548076 58.2957 0.000126598C54.4932 -0.0148515 50.805 1.29967 47.8692 3.7163C45.0045 1.39978 41.3843 0.000126598 37.44 0.000126598C33.6391 -0.00566487 29.954 1.30778 27.0136 3.7163C24.1503 1.39978 20.5301 0.000126598 16.5843 0.000126598C7.40174 0.000126598 0 7.37821 0 16.5344C0 25.6892 7.40174 33.0686 16.5857 33.0686C20.5301 33.0686 24.2031 31.6676 27.0136 29.3525C29.8769 31.6676 33.497 33.0673 37.44 33.0673C41.3843 33.0673 45.0574 31.6676 47.8678 29.3525C50.829 31.7613 54.5313 33.0736 58.3485 33.0673C62.3471 33.0673 65.9659 31.6676 68.8292 29.3525C71.6925 31.6676 75.3127 33.0673 79.257 33.0673C88.441 33.0673 95.8428 25.6906 95.8428 16.5344C95.7885 7.43247 88.3868 0.000126598 79.2028 0.000126598ZM68.775 23.9667C67.2223 21.8001 66.391 19.1999 66.3986 16.5344C66.3986 13.788 67.2626 11.2029 68.775 9.10204C70.3281 11.2685 71.1599 13.8688 71.1527 16.5344C71.1527 19.3351 70.2344 21.8659 68.775 23.9667ZM47.8678 23.9667C46.3147 21.8003 45.4828 19.2 45.4901 16.5344C45.4901 13.788 46.3541 11.2029 47.8678 9.10204C49.4204 11.2686 50.2518 13.8689 50.2442 16.5344C50.2442 19.3351 49.3259 21.8659 47.8678 23.9667ZM26.9593 23.9667C25.4062 21.8003 24.5743 19.2 24.5816 16.5344C24.5816 13.788 25.447 11.2029 26.9593 9.10204C28.5119 11.2686 29.3433 13.8689 29.3357 16.5344C29.3357 19.3351 28.4174 21.8659 26.9593 23.9667ZM3.62017 16.5344C3.62017 9.47908 9.34678 3.7163 16.4786 3.7163C19.3093 3.70771 22.0634 4.63568 24.3117 6.3556C22.0967 9.1563 20.8 12.6568 20.8 16.5344C20.8 20.3577 22.0967 23.9125 24.3117 26.7132C22.151 28.3827 19.449 29.3525 16.4786 29.3525C9.40104 29.3525 3.62017 23.644 3.62017 16.5344ZM29.5513 26.7132C31.7663 23.9125 33.063 20.412 33.063 16.5344C33.063 12.7097 31.7663 9.1563 29.5513 6.3556C31.712 4.68604 34.4139 3.7163 37.3843 3.7163C40.3562 3.7163 43.0581 4.68604 45.2174 6.3556C43.0038 9.1563 41.7071 12.6568 41.7071 16.5344C41.7071 20.3577 43.0038 23.9125 45.2188 26.7132C43.0581 28.3827 40.3562 29.3525 37.3857 29.3525C34.4139 29.3525 31.712 28.3827 29.5513 26.7132ZM50.4598 26.7132C52.6748 23.9125 53.9715 20.412 53.9715 16.5344C53.9715 12.7097 52.6748 9.1563 50.4598 6.3556C52.6205 4.68604 55.321 3.7163 58.2929 3.7163C61.1236 3.70771 63.8776 4.63568 66.1259 6.3556C63.9123 9.1563 62.6157 12.6568 62.6157 16.5344C62.6157 20.3577 63.9123 23.9125 66.1273 26.7132C63.9652 28.3827 61.2647 29.3525 58.2943 29.3525C55.4631 29.3614 52.7085 28.4334 50.4598 26.7132ZM79.2014 29.3525C76.3707 29.3611 73.6166 28.4331 71.3684 26.7132C73.5819 23.9125 74.8786 20.412 74.8786 16.5344C74.8786 12.7097 73.5819 9.1563 71.367 6.3556C73.529 4.68604 76.2296 3.7163 79.2 3.7163C86.279 3.7163 92.0598 9.42482 92.0598 16.5344C92.0598 23.644 86.279 29.3525 79.2014 29.3525Z" fill="white"/>
</g>
<defs>
<clipPath id="clip0_575_59">
<rect width="96" height="33.3913" fill="white"/>
</clipPath>
</defs>
</svg>
